<svg width="102" height="21" viewBox="0 0 102 21" fill="none" xmlns="http://www.w3.org/2000/svg">
<rect width="21" height="21" rx="2" fill="#DFE9F2"/>
<path d="M14.328 2.84361C15.3424 2.84664 16.3144 3.25096 17.0317 3.96827C17.749 4.68558 18.1534 5.65759 18.1564 6.67201V14.328C18.1534 15.3424 17.749 16.3144 17.0317 17.0317C16.3144 17.749 15.3424 18.1534 14.328 18.1564H6.67201C5.65759 18.1534 4.68558 17.749 3.96827 17.0317C3.25096 16.3144 2.84664 15.3424 2.84361 14.328V6.67201C2.84664 5.65759 3.25096 4.68558 3.96827 3.96827C4.68558 3.25096 5.65759 2.84664 6.67201 2.84361H14.328ZM14.328 1.3125H6.67201C3.72422 1.3125 1.3125 3.72422 1.3125 6.67201V14.328C1.3125 17.2758 3.72422 19.6875 6.67201 19.6875H14.328C17.2758 19.6875 19.6875 17.2758 19.6875 14.328V6.67201C19.6875 3.72422 17.2758 1.3125 14.328 1.3125Z" fill="#434F7B"/>
<path d="M15.4764 6.67188C15.2493 6.67188 15.0273 6.60452 14.8384 6.47833C14.6495 6.35214 14.5023 6.17278 14.4154 5.96293C14.3285 5.75308 14.3057 5.52216 14.3501 5.29939C14.3944 5.07661 14.5037 4.87198 14.6644 4.71137C14.825 4.55076 15.0296 4.44138 15.2524 4.39707C15.4752 4.35275 15.7061 4.3755 15.9159 4.46242C16.1258 4.54934 16.3051 4.69654 16.4313 4.8854C16.5575 5.07426 16.6249 5.2963 16.6249 5.52344C16.6252 5.67434 16.5957 5.82383 16.5381 5.96331C16.4805 6.10279 16.3959 6.22952 16.2892 6.33623C16.1825 6.44294 16.0558 6.52752 15.9163 6.58512C15.7768 6.64272 15.6273 6.6722 15.4764 6.67188ZM10.5 7.43723C11.1057 7.43723 11.6979 7.61685 12.2015 7.95337C12.7052 8.2899 13.0977 8.76822 13.3295 9.32784C13.5613 9.88747 13.622 10.5033 13.5038 11.0974C13.3856 11.6914 13.0939 12.2372 12.6656 12.6655C12.2373 13.0938 11.6916 13.3855 11.0975 13.5037C10.5034 13.6218 9.88761 13.5612 9.32798 13.3294C8.76836 13.0976 8.29004 12.705 7.95351 12.2014C7.61699 11.6977 7.43737 11.1056 7.43737 10.4999C7.43823 9.68787 7.76118 8.90938 8.33535 8.33521C8.90952 7.76104 9.68801 7.4381 10.5 7.43723ZM10.5 5.90611C9.59144 5.90611 8.70329 6.17553 7.94785 6.6803C7.19241 7.18507 6.60362 7.90251 6.25593 8.74191C5.90824 9.58131 5.81727 10.505 5.99452 11.3961C6.17177 12.2872 6.60928 13.1057 7.25173 13.7481C7.89418 14.3906 8.71271 14.8281 9.60381 15.0053C10.4949 15.1826 11.4186 15.0916 12.258 14.7439C13.0974 14.3962 13.8148 13.8075 14.3196 13.052C14.8243 12.2966 15.0938 11.4084 15.0938 10.4999C15.0938 9.28153 14.6098 8.11309 13.7483 7.25159C12.8868 6.3901 11.7183 5.90611 10.5 5.90611Z" fill="#434F7B"/>
<path d="M31.352 5.242V15H30.078V5.242H31.352ZM37.2613 7.188C38.1946 7.188 38.9506 7.47267 39.5293 8.042C40.108 8.602 40.3973 9.414 40.3973 10.478V15H39.1373V10.66C39.1373 9.89467 38.946 9.31133 38.5633 8.91C38.1806 8.49933 37.658 8.294 36.9953 8.294C36.3233 8.294 35.7866 8.504 35.3853 8.924C34.9933 9.344 34.7973 9.95533 34.7973 10.758V15H33.5233V7.328H34.7973V8.42C35.0493 8.028 35.39 7.72467 35.8193 7.51C36.258 7.29533 36.7386 7.188 37.2613 7.188ZM45.1944 15.126C44.6064 15.126 44.0791 15.028 43.6124 14.832C43.1457 14.6267 42.7771 14.3467 42.5064 13.992C42.2357 13.628 42.0864 13.2127 42.0584 12.746H43.3744C43.4117 13.1287 43.5891 13.4413 43.9064 13.684C44.2331 13.9267 44.6577 14.048 45.1804 14.048C45.6657 14.048 46.0484 13.9407 46.3284 13.726C46.6084 13.5113 46.7484 13.2407 46.7484 12.914C46.7484 12.578 46.5991 12.3307 46.3004 12.172C46.0017 12.004 45.5397 11.8407 44.9144 11.682C44.3451 11.5327 43.8784 11.3833 43.5144 11.234C43.1597 11.0753 42.8517 10.8467 42.5904 10.548C42.3384 10.24 42.2124 9.83867 42.2124 9.344C42.2124 8.952 42.3291 8.59267 42.5624 8.266C42.7957 7.93933 43.1271 7.68267 43.5564 7.496C43.9857 7.3 44.4757 7.202 45.0264 7.202C45.8757 7.202 46.5617 7.41667 47.0844 7.846C47.6071 8.27533 47.8871 8.86333 47.9244 9.61H46.6504C46.6224 9.20867 46.4591 8.88667 46.1604 8.644C45.8711 8.40133 45.4791 8.28 44.9844 8.28C44.5271 8.28 44.1631 8.378 43.8924 8.574C43.6217 8.77 43.4864 9.02667 43.4864 9.344C43.4864 9.596 43.5657 9.806 43.7244 9.974C43.8924 10.1327 44.0977 10.2633 44.3404 10.366C44.5924 10.4593 44.9377 10.5667 45.3764 10.688C45.9271 10.8373 46.3751 10.9867 46.7204 11.136C47.0657 11.276 47.3597 11.4907 47.6024 11.78C47.8544 12.0693 47.9851 12.4473 47.9944 12.914C47.9944 13.334 47.8777 13.712 47.6444 14.048C47.4111 14.384 47.0797 14.65 46.6504 14.846C46.2304 15.0327 45.7451 15.126 45.1944 15.126ZM51.3468 8.378V12.9C51.3468 13.2733 51.4262 13.5393 51.5848 13.698C51.7435 13.8473 52.0188 13.922 52.4108 13.922H53.3488V15H52.2008C51.4915 15 50.9595 14.8367 50.6048 14.51C50.2502 14.1833 50.0728 13.6467 50.0728 12.9V8.378H49.0788V7.328H50.0728V5.396H51.3468V7.328H53.3488V8.378H51.3468ZM54.4165 11.136C54.4165 10.352 54.5751 9.666 54.8925 9.078C55.2098 8.48067 55.6438 8.01867 56.1945 7.692C56.7545 7.36533 57.3751 7.202 58.0565 7.202C58.7285 7.202 59.3118 7.34667 59.8065 7.636C60.3011 7.92533 60.6698 8.28933 60.9125 8.728V7.328H62.2005V15H60.9125V13.572C60.6605 14.02 60.2825 14.3933 59.7785 14.692C59.2838 14.9813 58.7051 15.126 58.0425 15.126C57.3611 15.126 56.7451 14.958 56.1945 14.622C55.6438 14.286 55.2098 13.8147 54.8925 13.208C54.5751 12.6013 54.4165 11.9107 54.4165 11.136ZM60.9125 11.15C60.9125 10.5713 60.7958 10.0673 60.5625 9.638C60.3291 9.20867 60.0118 8.882 59.6105 8.658C59.2185 8.42467 58.7845 8.308 58.3085 8.308C57.8325 8.308 57.3985 8.42 57.0065 8.644C56.6145 8.868 56.3018 9.19467 56.0685 9.624C55.8351 10.0533 55.7185 10.5573 55.7185 11.136C55.7185 11.724 55.8351 12.2373 56.0685 12.676C56.3018 13.1053 56.6145 13.4367 57.0065 13.67C57.3985 13.894 57.8325 14.006 58.3085 14.006C58.7845 14.006 59.2185 13.894 59.6105 13.67C60.0118 13.4367 60.3291 13.1053 60.5625 12.676C60.7958 12.2373 60.9125 11.7287 60.9125 11.15ZM67.5174 7.202C68.1801 7.202 68.7587 7.34667 69.2534 7.636C69.7574 7.92533 70.1307 8.28933 70.3734 8.728V7.328H71.6614V15.168C71.6614 15.868 71.5121 16.4887 71.2134 17.03C70.9147 17.5807 70.4854 18.01 69.9254 18.318C69.3747 18.626 68.7307 18.78 67.9934 18.78C66.9854 18.78 66.1454 18.542 65.4734 18.066C64.8014 17.59 64.4047 16.9413 64.2834 16.12H65.5434C65.6834 16.5867 65.9727 16.96 66.4114 17.24C66.8501 17.5293 67.3774 17.674 67.9934 17.674C68.6934 17.674 69.2627 17.4547 69.7014 17.016C70.1494 16.5773 70.3734 15.9613 70.3734 15.168V13.558C70.1214 14.006 69.7481 14.3793 69.2534 14.678C68.7587 14.9767 68.1801 15.126 67.5174 15.126C66.8361 15.126 66.2154 14.958 65.6554 14.622C65.1047 14.286 64.6707 13.8147 64.3534 13.208C64.0361 12.6013 63.8774 11.9107 63.8774 11.136C63.8774 10.352 64.0361 9.666 64.3534 9.078C64.6707 8.48067 65.1047 8.01867 65.6554 7.692C66.2154 7.36533 66.8361 7.202 67.5174 7.202ZM70.3734 11.15C70.3734 10.5713 70.2567 10.0673 70.0234 9.638C69.7901 9.20867 69.4727 8.882 69.0714 8.658C68.6794 8.42467 68.2454 8.308 67.7694 8.308C67.2934 8.308 66.8594 8.42 66.4674 8.644C66.0754 8.868 65.7627 9.19467 65.5294 9.624C65.2961 10.0533 65.1794 10.5573 65.1794 11.136C65.1794 11.724 65.2961 12.2373 65.5294 12.676C65.7627 13.1053 66.0754 13.4367 66.4674 13.67C66.8594 13.894 67.2934 14.006 67.7694 14.006C68.2454 14.006 68.6794 13.894 69.0714 13.67C69.4727 13.4367 69.7901 13.1053 70.0234 12.676C70.2567 12.2373 70.3734 11.7287 70.3734 11.15ZM75.0883 8.574C75.3123 8.13533 75.6297 7.79467 76.0403 7.552C76.4603 7.30933 76.969 7.188 77.5663 7.188V8.504H77.2303C75.8023 8.504 75.0883 9.27867 75.0883 10.828V15H73.8143V7.328H75.0883V8.574ZM78.561 11.136C78.561 10.352 78.7197 9.666 79.037 9.078C79.3543 8.48067 79.7883 8.01867 80.339 7.692C80.899 7.36533 81.5197 7.202 82.201 7.202C82.873 7.202 83.4563 7.34667 83.951 7.636C84.4457 7.92533 84.8143 8.28933 85.057 8.728V7.328H86.345V15H85.057V13.572C84.805 14.02 84.427 14.3933 83.923 14.692C83.4283 14.9813 82.8497 15.126 82.187 15.126C81.5057 15.126 80.8897 14.958 80.339 14.622C79.7883 14.286 79.3543 13.8147 79.037 13.208C78.7197 12.6013 78.561 11.9107 78.561 11.136ZM85.057 11.15C85.057 10.5713 84.9403 10.0673 84.707 9.638C84.4737 9.20867 84.1563 8.882 83.755 8.658C83.363 8.42467 82.929 8.308 82.453 8.308C81.977 8.308 81.543 8.42 81.151 8.644C80.759 8.868 80.4463 9.19467 80.213 9.624C79.9797 10.0533 79.863 10.5573 79.863 11.136C79.863 11.724 79.9797 12.2373 80.213 12.676C80.4463 13.1053 80.759 13.4367 81.151 13.67C81.543 13.894 81.977 14.006 82.453 14.006C82.929 14.006 83.363 13.894 83.755 13.67C84.1563 13.4367 84.4737 13.1053 84.707 12.676C84.9403 12.2373 85.057 11.7287 85.057 11.15ZM97.7239 7.188C98.3213 7.188 98.8533 7.314 99.3199 7.566C99.7866 7.80867 100.155 8.17733 100.426 8.672C100.697 9.16667 100.832 9.76867 100.832 10.478V15H99.5719V10.66C99.5719 9.89467 99.3806 9.31133 98.9979 8.91C98.6246 8.49933 98.1159 8.294 97.4719 8.294C96.8093 8.294 96.2819 8.50867 95.8899 8.938C95.4979 9.358 95.3019 9.96933 95.3019 10.772V15H94.0419V10.66C94.0419 9.89467 93.8506 9.31133 93.4679 8.91C93.0946 8.49933 92.5859 8.294 91.9419 8.294C91.2793 8.294 90.7519 8.50867 90.3599 8.938C89.9679 9.358 89.7719 9.96933 89.7719 10.772V15H88.4979V7.328H89.7719V8.434C90.0239 8.03267 90.3599 7.72467 90.7799 7.51C91.2093 7.29533 91.6806 7.188 92.1939 7.188C92.8379 7.188 93.4073 7.33267 93.9019 7.622C94.3966 7.91133 94.7653 8.336 95.0079 8.896C95.2226 8.35467 95.5773 7.93467 96.0719 7.636C96.5666 7.33733 97.1173 7.188 97.7239 7.188Z" fill="#DFE9F2"/>
</svg>
