<svg width="86" height="21" viewBox="0 0 86 21" fill="none" xmlns="http://www.w3.org/2000/svg">
<rect width="21" height="21" rx="2" fill="#DFE9F2"/>
<path d="M18.2179 1.3125H2.88258C2.04463 1.3125 1.3125 1.91543 1.3125 2.74354V18.1129C1.3125 18.9455 2.04463 19.6875 2.88258 19.6875H18.2134C19.0559 19.6875 19.6875 18.9406 19.6875 18.1129V2.74354C19.6924 1.91543 19.0559 1.3125 18.2179 1.3125ZM7.00834 16.629H4.37596V8.4443H7.00834V16.629ZM5.7832 7.19988H5.76434C4.92187 7.19988 4.37637 6.57275 4.37637 5.78771C4.37637 4.98832 4.93623 4.37596 5.79756 4.37596C6.65889 4.37596 7.18594 4.98381 7.2048 5.78771C7.20439 6.57275 6.65889 7.19988 5.7832 7.19988ZM16.629 16.629H13.9966V12.1538C13.9966 11.0816 13.6135 10.3491 12.6611 10.3491C11.9335 10.3491 11.5028 10.8413 11.3113 11.3207C11.2395 11.493 11.2202 11.7276 11.2202 11.9671V16.629H8.58785V8.4443H11.2202V9.5833C11.6033 9.03779 12.2017 8.25275 13.5942 8.25275C15.3222 8.25275 16.6294 9.39176 16.6294 11.8474L16.629 16.629Z" fill="#434F7B"/>
<path d="M31.352 13.964H34.768V15H30.078V5.242H31.352V13.964ZM36.779 6.082C36.5363 6.082 36.331 5.998 36.163 5.83C35.995 5.662 35.911 5.45667 35.911 5.214C35.911 4.97133 35.995 4.766 36.163 4.598C36.331 4.43 36.5363 4.346 36.779 4.346C37.0123 4.346 37.2083 4.43 37.367 4.598C37.535 4.766 37.619 4.97133 37.619 5.214C37.619 5.45667 37.535 5.662 37.367 5.83C37.2083 5.998 37.0123 6.082 36.779 6.082ZM37.395 7.328V15H36.121V7.328H37.395ZM43.3043 7.188C44.2376 7.188 44.9936 7.47267 45.5723 8.042C46.1509 8.602 46.4403 9.414 46.4403 10.478V15H45.1803V10.66C45.1803 9.89467 44.9889 9.31133 44.6063 8.91C44.2236 8.49933 43.7009 8.294 43.0383 8.294C42.3663 8.294 41.8296 8.504 41.4283 8.924C41.0363 9.344 40.8403 9.95533 40.8403 10.758V15H39.5663V7.328H40.8403V8.42C41.0923 8.028 41.4329 7.72467 41.8623 7.51C42.3009 7.29533 42.7816 7.188 43.3043 7.188ZM52.8054 15L49.7954 11.612V15H48.5214V4.64H49.7954V10.73L52.7494 7.328H54.5274L50.9154 11.15L54.5414 15H52.8054ZM62.7264 10.87C62.7264 11.1127 62.7124 11.3693 62.6844 11.64H56.5524C56.5991 12.396 56.8558 12.9887 57.3224 13.418C57.7984 13.838 58.3724 14.048 59.0444 14.048C59.5951 14.048 60.0524 13.922 60.4164 13.67C60.7898 13.4087 61.0511 13.0633 61.2004 12.634H62.5724C62.3671 13.3713 61.9564 13.9733 61.3404 14.44C60.7244 14.8973 59.9591 15.126 59.0444 15.126C58.3164 15.126 57.6631 14.9627 57.0844 14.636C56.5151 14.3093 56.0671 13.8473 55.7404 13.25C55.4138 12.6433 55.2504 11.9433 55.2504 11.15C55.2504 10.3567 55.4091 9.66133 55.7264 9.064C56.0438 8.46667 56.4871 8.00933 57.0564 7.692C57.6351 7.36533 58.2978 7.202 59.0444 7.202C59.7724 7.202 60.4164 7.36067 60.9764 7.678C61.5364 7.99533 61.9658 8.434 62.2644 8.994C62.5724 9.54467 62.7264 10.17 62.7264 10.87ZM61.4104 10.604C61.4104 10.1187 61.3031 9.70333 61.0884 9.358C60.8738 9.00333 60.5798 8.73733 60.2064 8.56C59.8424 8.37333 59.4364 8.28 58.9884 8.28C58.3444 8.28 57.7938 8.48533 57.3364 8.896C56.8884 9.30667 56.6318 9.876 56.5664 10.604H61.4104ZM63.9321 11.136C63.9321 10.352 64.0907 9.666 64.4081 9.078C64.7254 8.48067 65.1594 8.01867 65.7101 7.692C66.2701 7.36533 66.8954 7.202 67.5861 7.202C68.1834 7.202 68.7387 7.342 69.2521 7.622C69.7654 7.89267 70.1574 8.252 70.4281 8.7V4.64H71.7161V15H70.4281V13.558C70.1761 14.0153 69.8027 14.3933 69.3081 14.692C68.8134 14.9813 68.2347 15.126 67.5721 15.126C66.8907 15.126 66.2701 14.958 65.7101 14.622C65.1594 14.286 64.7254 13.8147 64.4081 13.208C64.0907 12.6013 63.9321 11.9107 63.9321 11.136ZM70.4281 11.15C70.4281 10.5713 70.3114 10.0673 70.0781 9.638C69.8447 9.20867 69.5274 8.882 69.1261 8.658C68.7341 8.42467 68.3001 8.308 67.8241 8.308C67.3481 8.308 66.9141 8.42 66.5221 8.644C66.1301 8.868 65.8174 9.19467 65.5841 9.624C65.3507 10.0533 65.2341 10.5573 65.2341 11.136C65.2341 11.724 65.3507 12.2373 65.5841 12.676C65.8174 13.1053 66.1301 13.4367 66.5221 13.67C66.9141 13.894 67.3481 14.006 67.8241 14.006C68.3001 14.006 68.7341 13.894 69.1261 13.67C69.5274 13.4367 69.8447 13.1053 70.0781 12.676C70.3114 12.2373 70.4281 11.7287 70.4281 11.15ZM74.527 6.082C74.2843 6.082 74.079 5.998 73.911 5.83C73.743 5.662 73.659 5.45667 73.659 5.214C73.659 4.97133 73.743 4.766 73.911 4.598C74.079 4.43 74.2843 4.346 74.527 4.346C74.7603 4.346 74.9563 4.43 75.115 4.598C75.283 4.766 75.367 4.97133 75.367 5.214C75.367 5.45667 75.283 5.662 75.115 5.83C74.9563 5.998 74.7603 6.082 74.527 6.082ZM75.143 7.328V15H73.869V7.328H75.143ZM81.0523 7.188C81.9857 7.188 82.7417 7.47267 83.3203 8.042C83.899 8.602 84.1883 9.414 84.1883 10.478V15H82.9283V10.66C82.9283 9.89467 82.737 9.31133 82.3543 8.91C81.9717 8.49933 81.449 8.294 80.7863 8.294C80.1143 8.294 79.5777 8.504 79.1763 8.924C78.7843 9.344 78.5883 9.95533 78.5883 10.758V15H77.3143V7.328H78.5883V8.42C78.8403 8.028 79.181 7.72467 79.6103 7.51C80.049 7.29533 80.5297 7.188 81.0523 7.188Z" fill="#DFE9F2"/>
</svg>
