<?xml version="1.0" standalone="no"?>
<!DOCTYPE svg PUBLIC "-//W3C//DTD SVG 20010904//EN"
 "http://www.w3.org/TR/2001/REC-SVG-20010904/DTD/svg10.dtd">
<svg version="1.0" xmlns="http://www.w3.org/2000/svg"
 width="2530.000000pt" height="683.000000pt" viewBox="0 0 2530.000000 683.000000"
 preserveAspectRatio="xMidYMid meet">

<g transform="translate(0.000000,683.000000) scale(0.100000,-0.100000)"
fill="#000000" stroke="none">
<path d="M2095 6819 c-236 -34 -471 -154 -646 -328 -173 -173 -281 -385 -319
-623 -18 -109 -8 -350 18 -448 61 -230 161 -401 329 -561 141 -135 305 -227
490 -276 120 -31 349 -43 471 -23 758 121 1185 925 858 1616 -58 121 -113 201
-209 301 -178 185 -382 294 -631 338 -95 16 -263 18 -361 4z m374 -359 c284
-79 501 -300 572 -580 18 -72 21 -104 17 -220 -4 -118 -9 -146 -35 -222 -122
-349 -435 -564 -797 -545 -131 7 -202 24 -312 77 -163 78 -290 203 -369 365
-65 130 -80 195 -80 350 0 157 15 219 85 362 108 220 321 382 565 429 94 18
258 11 354 -16z"/>
<path d="M4440 6338 c-107 -30 -157 -134 -111 -233 23 -51 53 -76 118 -103
131 -52 229 -145 293 -276 106 -218 62 -463 -117 -640 -42 -42 -86 -71 -161
-108 -115 -57 -142 -87 -149 -167 -9 -93 70 -181 162 -180 103 0 306 118 427
248 167 180 248 405 235 651 -16 306 -179 576 -443 735 -105 64 -197 90 -254
73z"/>
<path d="M3737 6119 c-66 -35 -100 -117 -78 -190 17 -57 56 -97 127 -129 111
-50 185 -143 202 -254 26 -163 -57 -307 -222 -385 -45 -22 -74 -43 -87 -64
-78 -129 29 -290 176 -263 61 12 193 87 260 148 112 103 183 229 211 376 28
149 9 282 -61 427 -70 145 -167 244 -309 315 -92 47 -156 52 -219 19z"/>
<path d="M328 5926 c-82 -24 -141 -58 -199 -116 -86 -86 -129 -185 -129 -302
0 -42 55 -280 201 -860 228 -916 229 -919 348 -1038 105 -104 258 -170 396
-170 72 0 127 28 163 80 47 69 14 201 -60 241 -11 6 -52 15 -89 20 -101 12
-162 50 -212 129 -24 39 -408 1586 -401 1615 8 32 59 75 87 75 12 0 36 -9 54
-20 26 -15 36 -32 52 -87 11 -37 47 -163 81 -280 33 -117 74 -245 91 -285 152
-368 452 -647 832 -773 182 -60 240 -65 726 -65 240 0 477 -5 526 -10 361 -41
665 -253 820 -573 84 -174 88 -200 94 -632 7 -409 9 -423 62 -472 85 -78 229
-45 275 64 17 40 20 610 4 743 -21 175 -63 315 -138 465 -190 380 -517 632
-944 727 -85 19 -139 21 -628 28 -499 6 -540 8 -610 27 -156 43 -283 107 -402
202 -90 71 -145 132 -214 236 -76 116 -96 169 -185 480 -46 161 -94 304 -111
337 -40 75 -122 151 -204 190 -54 25 -81 31 -152 34 -54 2 -105 -2 -134 -10z"/>
<path d="M5154 4250 c-115 -17 -155 -45 -198 -140 -34 -76 -617 -1608 -626
-1646 -10 -43 11 -89 52 -111 39 -21 157 -23 226 -4 77 21 95 49 166 241 l64
175 392 0 392 0 63 -167 c34 -93 70 -180 80 -194 22 -35 86 -62 165 -70 108
-11 189 24 205 88 5 18 -83 261 -310 864 -174 461 -327 855 -340 875 -28 44
-91 76 -171 89 -65 11 -86 11 -160 0z m219 -798 l134 -362 -273 0 -273 0 30
83 c94 257 242 647 245 645 1 -2 63 -166 137 -366z"/>
<path d="M8018 4249 c-44 -13 -88 -60 -88 -94 0 -12 144 -405 320 -871 300
-795 323 -851 359 -886 50 -47 102 -62 226 -62 141 0 223 33 260 105 32 61
645 1694 645 1717 0 14 -14 38 -33 57 -27 27 -44 34 -91 40 -97 12 -221 -22
-253 -71 -8 -13 -127 -331 -265 -706 -137 -375 -252 -688 -257 -695 -4 -9 -31
50 -70 159 -220 605 -444 1205 -459 1230 -36 62 -197 104 -294 77z"/>
<path d="M9970 4251 c-44 -9 -70 -23 -95 -51 -20 -22 -20 -38 -20 -905 0 -869
0 -883 20 -905 30 -33 65 -48 132 -55 77 -9 163 14 192 51 21 27 21 33 21 908
0 970 4 908 -61 941 -35 18 -139 27 -189 16z"/>
<path d="M11810 4251 c-44 -9 -70 -23 -95 -51 -19 -21 -20 -41 -25 -643 l-5
-622 -99 170 c-267 460 -582 994 -608 1032 -19 28 -46 50 -83 68 -52 26 -61
27 -173 24 -107 -4 -122 -6 -155 -29 -20 -13 -46 -43 -59 -65 l-23 -40 0 -843
0 -844 32 -28 c56 -51 199 -63 274 -25 59 31 59 32 60 365 1 168 5 439 8 602
l6 297 335 -571 c219 -373 351 -587 380 -618 55 -59 91 -70 225 -70 118 0 158
10 198 47 60 58 57 7 57 925 0 928 4 870 -61 903 -35 18 -139 27 -189 16z"/>
<path d="M17148 4249 c-42 -12 -88 -60 -88 -90 0 -25 624 -1680 653 -1732 43
-76 189 -114 344 -88 94 16 146 50 178 116 56 116 635 1667 635 1701 0 52 -41
90 -108 99 -119 16 -247 -26 -280 -92 -10 -21 -128 -339 -262 -708 -134 -368
-246 -673 -249 -677 -4 -4 -121 306 -261 689 -146 398 -265 708 -277 724 -13
15 -41 34 -64 43 -51 21 -172 29 -221 15z"/>
<path d="M19085 4246 c-28 -8 -59 -25 -72 -41 l-23 -26 0 -885 0 -886 28 -28
c50 -50 197 -64 271 -25 14 7 35 23 46 35 20 22 20 36 20 905 0 869 0 883 -20
905 -11 12 -32 29 -48 36 -40 21 -143 26 -202 10z"/>
<path d="M21095 4249 c-56 -14 -95 -54 -95 -97 0 -19 38 -170 85 -336 46 -166
136 -488 200 -716 113 -403 173 -608 193 -661 14 -36 65 -76 115 -90 58 -17
223 -17 272 0 54 18 92 47 110 80 7 15 86 279 175 587 89 307 163 560 164 561
1 1 75 -256 164 -571 114 -400 170 -580 185 -598 32 -38 78 -57 165 -70 142
-20 276 19 313 92 22 43 489 1687 489 1721 0 32 -24 65 -63 86 -24 13 -55 17
-122 17 -103 0 -171 -24 -200 -68 -10 -14 -70 -223 -135 -464 -218 -813 -234
-872 -241 -859 -3 6 -28 93 -54 192 -114 433 -286 1072 -296 1098 -32 78 -138
118 -263 99 -71 -11 -107 -30 -137 -73 -10 -13 -95 -316 -189 -674 -95 -357
-173 -651 -175 -653 -4 -5 0 -21 -125 448 -206 767 -230 855 -248 880 -42 58
-189 94 -287 69z"/>
<path d="M6376 4220 c-38 -12 -85 -57 -102 -97 -20 -47 -21 -1608 0 -1656 20
-49 78 -95 130 -102 24 -4 208 -5 408 -2 353 4 366 5 468 31 380 97 573 343
611 780 7 86 7 156 -1 244 -39 438 -230 681 -610 778 -104 27 -110 27 -490 30
-216 2 -398 -1 -414 -6z m728 -335 c194 -34 328 -159 382 -355 23 -83 26 -365
5 -450 -36 -149 -129 -273 -247 -331 -90 -44 -189 -58 -416 -59 l-198 0 0 605
0 605 198 0 c124 -1 226 -6 276 -15z"/>
<path d="M12244 4211 c-17 -11 -36 -34 -43 -52 -15 -45 -14 -153 3 -194 26
-62 42 -65 356 -65 l280 0 0 -732 c0 -566 3 -739 13 -758 44 -87 252 -106 329
-30 l28 28 0 670 c0 368 3 703 6 745 l7 77 279 0 c309 0 323 3 354 63 23 44
24 161 1 204 -35 66 2 63 -829 63 -722 0 -754 -1 -784 -19z"/>
<path d="M14095 4211 c-48 -22 -69 -44 -90 -94 -13 -32 -15 -137 -15 -824 0
-743 1 -790 19 -828 22 -48 44 -69 94 -90 31 -13 115 -15 599 -15 605 0 592
-1 632 53 31 41 31 183 0 224 -40 53 -35 53 -522 53 l-452 0 2 222 3 223 370
3 c213 2 377 8 388 14 10 5 27 24 37 41 24 39 27 154 6 196 -30 57 -19 56
-425 61 l-376 5 -3 223 -2 222 452 0 c487 0 482 0 522 53 17 24 21 43 21 112
0 69 -4 88 -21 112 -40 54 -26 53 -634 53 -527 0 -568 -2 -605 -19z"/>
<path d="M15625 4212 c-46 -22 -79 -55 -94 -95 -8 -19 -11 -295 -11 -858 0
-912 -3 -872 60 -904 80 -42 246 -23 289 31 20 26 21 39 21 325 l0 299 113 -6
c61 -3 137 -10 167 -15 75 -12 172 -62 212 -108 18 -21 89 -137 158 -256 144
-251 159 -266 272 -285 111 -19 217 5 240 55 13 30 2 55 -142 300 -138 237
-175 291 -228 334 l-37 30 40 16 c84 34 129 62 189 117 108 98 156 232 156
433 0 324 -137 505 -437 577 -80 19 -124 21 -508 25 -396 3 -422 2 -460 -15z
m829 -336 c73 -24 132 -62 155 -99 43 -69 44 -223 2 -306 -26 -51 -68 -84
-138 -112 -54 -22 -76 -23 -320 -27 l-263 -4 0 287 0 287 258 -5 c202 -3 268
-8 306 -21z"/>
<path d="M19742 4222 c-36 -11 -93 -62 -108 -98 -12 -28 -14 -171 -14 -831 0
-894 -5 -835 73 -897 l39 -31 579 -3 c646 -3 626 -5 655 65 20 47 20 163 -1
202 -31 61 -29 61 -525 61 l-450 0 0 223 0 222 372 3 c230 2 379 7 390 13 29
16 58 87 58 144 0 58 -29 128 -58 144 -14 7 -145 11 -391 11 l-371 0 0 225 0
225 450 0 c503 0 498 -1 526 67 20 47 20 163 -1 202 -32 62 -18 61 -637 60
-310 -1 -573 -4 -586 -7z"/>
<path d="M3052 3329 c-23 -12 -52 -35 -65 -53 -22 -31 -22 -33 -22 -422 l0
-391 29 -37 c74 -97 229 -84 284 24 22 43 22 51 22 402 0 390 -1 398 -56 450
-56 52 -122 61 -192 27z"/>
</g>
</svg>
